<svg width="40" height="41" viewBox="0 0 40 41" fill="none" xmlns="http://www.w3.org/2000/svg">
<path d="M14.5836 30.8535V38.9195C14.5836 39.4829 14.9302 39.9821 15.4436 40.1594C15.5719 40.2029 15.7036 40.2238 15.8336 40.2238C16.2235 40.2238 16.6002 40.0325 16.8402 39.6916L21.3619 33.2708L14.5836 30.8535Z" fill="#1173A1"/>
<path d="M39.4749 0.465676C39.0916 0.182201 38.5883 0.14394 38.1716 0.371764L0.671739 20.8063C0.228407 21.0481 -0.0332591 21.542 0.00340745 22.062C0.0417407 22.5837 0.373406 23.0289 0.845071 23.1976L11.27 26.9159L33.4716 7.10735L16.2917 28.7054L33.7633 34.9366C33.8933 34.9819 34.03 35.0062 34.1666 35.0062C34.3933 35.0062 34.6183 34.9419 34.8166 34.8166C35.1333 34.6149 35.3483 34.2758 35.4033 33.8949L39.9866 1.72132C40.0549 1.23436 39.8583 0.750891 39.4749 0.465676Z" fill="#1173A1"/>
</svg>
