<svg width="41" height="41" viewBox="0 0 41 41" fill="none" xmlns="http://www.w3.org/2000/svg">
<path d="M37.5963 26.7031C35.1473 26.7031 32.7428 26.3201 30.4641 25.567C29.3476 25.1862 27.975 25.5356 27.2935 26.2355L22.7959 29.6307C17.58 26.8464 14.3671 23.6345 11.6208 18.4578L14.9161 14.0773C15.7723 13.2224 16.0794 11.9734 15.7115 10.8015C14.9552 8.51089 14.571 6.10745 14.571 3.65745C14.5711 1.88756 13.1312 0.447662 11.3615 0.447662H4.01565C2.24586 0.447662 0.805969 1.88756 0.805969 3.65735C0.805969 23.9438 17.3099 40.4477 37.5963 40.4477C39.3661 40.4477 40.806 39.0078 40.806 37.238V29.9127C40.8059 28.143 39.366 26.7031 37.5963 26.7031Z" fill="#1173A1"/>
</svg>
