<svg width="40" height="40" viewBox="0 0 40 40" fill="none" xmlns="http://www.w3.org/2000/svg">
<path d="M38.8097 24.2216C41.7035 11.2196 30.3115 -0.592122 16.9332 1.67533C9.67038 -2.83127 0 2.26133 0 10.9016C0 12.911 0.554449 14.7922 1.51849 16.4137C-1.1705 29.4458 10.3147 41.0877 23.6815 38.6654C33.1304 43.6614 43.5717 33.6976 38.8097 24.2216ZM26.0924 32.0628C22.5825 33.5062 16.8066 33.5145 13.3118 31.6849C8.32839 29.0279 7.4426 23.0463 11.7417 23.0463C14.9818 23.0463 13.9561 26.8237 17.2279 28.3636C18.7297 29.0579 21.9582 29.1294 23.8346 27.8642C25.6878 26.6239 25.518 24.6728 24.5106 23.7405C21.8416 21.2766 14.2042 22.2555 10.7127 17.942C9.19586 16.0708 8.90947 12.7695 10.7743 10.3755C14.0244 6.19358 23.5616 5.93886 27.6625 9.09698C31.4487 12.027 30.4264 15.916 27.3711 15.916C23.6964 15.916 25.6279 11.108 19.6954 11.108C15.3947 11.108 13.703 14.1663 16.7317 15.6546C20.8376 17.694 31.3005 17.0131 31.3005 24.9824C31.2922 28.2987 29.2592 30.7709 26.0924 32.0628Z" fill="#1173A1"/>
</svg>
